# xmcd CD database file
#
# Track frame offsets:
#	150
#	11106
#	25475
#	38720
#	54374
#	68315
#	86231
#	97726
#	115631
#	135039
#	153378
#	167463
#	183288
#	197589
#	211818
#	227311
#	244246
#	257457
#
# Disc length: 3648 seconds
#
# Revision: 3
# Processed by: cddbd v1.5.2PL0 Copyright (c) Steve Scherf et al.
# Submitted via: ACXtractor (MTCDDB.DLL V2003.12.21)
#
DISCID=cd0e3e12
DTITLE=Costa Brothers - I Fought The Law
DYEAR=1995
DGENRE=Country
TTITLE0=I Fought The Law
TTITLE1=Seven Spanish Angels
TTITLE2=Here Comes My Baby
TTITLE3=If I Said You Had a Beautiful Body
TTITLE4=Smokey Places
TTITLE5=I'm So In Love With You
TTITLE6=Runaway
TTITLE7=California Blue
TTITLE8=Another Good Reason Not to Drink
TTITLE9=Margaritaville
TTITLE10=Hey Hey It's a Beautiful Day
TTITLE11=Fly Like A Bird
TTITLE12=Gave me a Mountain
TTITLE13=Cunnamulla Fella
TTITLE14=Living Next Door To Alice
TTITLE15=The Losing Side Of Me
TTITLE16=Trere Goes My Everything
TTITLE17=Shout
EXTD=ID3G:   2 YEAR: 1995
EXTT0=
EXTT1=
EXTT2=
EXTT3=
EXTT4=
EXTT5=
EXTT6=
EXTT7=
EXTT8=
EXTT9=
EXTT10=
EXTT11=
EXTT12=
EXTT13=
EXTT14=
EXTT15=
EXTT16=
EXTT17=
PLAYORDER=
